<?xml version="1.0" encoding="UTF-8" standalone="no"?>
<!-- Generator: Adobe Illustrator 13.0.2, SVG Export Plug-In . SVG Version: 6.00 Build 14948)  -->
<svg
   xmlns:dc="http://purl.org/dc/elements/1.1/"
   xmlns:cc="http://creativecommons.org/ns#"
   xmlns:rdf="http://www.w3.org/1999/02/22-rdf-syntax-ns#"
   xmlns:svg="http://www.w3.org/2000/svg"
   xmlns="http://www.w3.org/2000/svg"
   xmlns:sodipodi="http://sodipodi.sourceforge.net/DTD/sodipodi-0.dtd"
   xmlns:inkscape="http://www.inkscape.org/namespaces/inkscape"
   version="1.0"
   id="Layer_1"
   x="0px"
   y="0px"
   width="48"
   height="48"
   viewBox="0 0 404.826 420.195"
   enable-background="new 0 0 404.826 420.195"
   xml:space="preserve"
   sodipodi:version="0.32"
   inkscape:version="0.46"
   inkscape:output_extension="org.inkscape.output.svg.inkscape"
   sodipodi:docname="chair.svg"><metadata
   id="metadata3093"><rdf:RDF><cc:Work
       rdf:about=""><dc:format>image/svg+xml</dc:format><dc:type
         rdf:resource="http://purl.org/dc/dcmitype/StillImage" /></cc:Work></rdf:RDF></metadata><defs
   id="defs3091"><inkscape:perspective
     sodipodi:type="inkscape:persp3d"
     inkscape:vp_x="0 : 210.0975 : 1"
     inkscape:vp_y="0 : 1000 : 0"
     inkscape:vp_z="404.82599 : 210.0975 : 1"
     inkscape:persp3d-origin="202.41299 : 140.065 : 1"
     id="perspective3095" /></defs><sodipodi:namedview
   inkscape:window-height="1125"
   inkscape:window-width="1920"
   inkscape:pageshadow="2"
   inkscape:pageopacity="0.0"
   guidetolerance="10.0"
   gridtolerance="10.0"
   objecttolerance="10.0"
   borderopacity="1.0"
   bordercolor="#666666"
   pagecolor="#ffffff"
   id="base"
   showgrid="false"
   inkscape:zoom="1.1518461"
   inkscape:cx="202.41299"
   inkscape:cy="36.463203"
   inkscape:window-x="0"
   inkscape:window-y="25"
   inkscape:current-layer="Layer_1" />
<g
   id="Outline">
	<g
   id="g2782">
		<path
   d="M 352.111,1 C 354.126,1 356.048,1.251 357.506,1.945 C 358.246,2.298 358.975,2.868 359.684,3.58 C 364,7.921 367.506,17.695 367.506,17.695 C 366.906,16.497 366.336,15.521 365.793,14.746 C 367.131,17.392 367.957,20.736 368.09,24.945 C 368.301,31.632 368.672,37.964 369.123,43.799 C 368.861,57.443 367.816,78.168 366.34,102.445 C 364.09,139.445 356.09,177.695 349.59,188.445 C 346.588,192.578 344.193,197.41 342.256,202.599 C 342.418,202.536 342.58,202.472 342.744,202.405 C 344.668,197.29 347.041,192.527 350.006,188.445 C 356.506,177.695 364.506,139.445 366.756,102.445 C 369.006,65.445 370.256,36.695 369.256,28.695 L 368.756,24.695 C 368.756,24.695 370.006,24.362 374.006,24.028 C 375.41,23.911 376.688,23.549 377.787,23.458 C 377.949,23.444 378.107,23.437 378.262,23.437 C 380.043,23.437 381.276,24.447 381.674,29.028 C 382.34,36.695 384.34,90.694 383.34,101.361 C 382.693,108.28 379.797,136.376 375.027,160.361 C 377.873,160.193 385.176,159.695 386.506,159.695 C 387.006,159.695 387.953,159.742 388.818,160.179 C 390.256,160.907 391.465,162.716 390.006,167.195 C 389.422,168.988 388.557,171.336 387.537,173.917 C 387.514,174.409 387.404,174.938 387.184,175.466 C 386.979,175.954 386.707,176.373 386.406,176.723 C 383.467,183.878 379.766,191.887 377.674,194.864 C 374.52,199.343 369.217,208.934 354.705,211.325 C 351.699,218.724 350.432,227.963 351.34,247.364 C 352.674,259.697 360.34,289.364 334.34,299.364 C 331.342,299.919 326.823,300.177 321.282,300.177 C 319.333,300.177 317.257,300.145 315.076,300.081 C 309.721,299.929 303.722,299.588 297.418,299.091 C 293.252,299.585 288.826,299.957 284.506,300.044 C 272.006,300.297 245.478,301.733 231.842,301.733 C 231.245,301.733 230.672,301.73 230.127,301.724 C 231.791,322.995 236.231,379.162 236.506,382.861 C 236.605,384.179 236.877,386.222 237.284,388.552 L 376.058,397.664 C 377.964,397.452 379.88,397.294 381.586,397.294 C 382.201,397.294 382.789,397.315 383.339,397.36 C 385.743,397.56 389.163,397.94 391.77,398.213 C 393.499,398.394 394.874,398.526 395.339,398.526 C 396.505,398.526 399.005,398.86 399.005,401.86 C 399.005,404.86 398.339,405.693 394.839,406.193 C 391.339,406.693 307.671,415.194 299.839,415.86 C 292.516,416.483 274.563,417.542 266.262,417.542 C 265.684,417.542 265.151,417.537 264.671,417.526 C 261.833,417.462 255.575,417.519 248.604,417.039 C 247.522,416.965 246.421,416.872 245.317,416.769 C 244.503,417.767 242.007,419.193 237.13,419.193 C 232.13,419.193 228.38,419.068 226.88,418.943 C 225.38,418.818 223.13,418.068 223.005,415.943 C 222.943,414.878 223.005,412.525 223.084,410.443 C 222.175,409.714 221.402,408.917 220.839,408.026 C 218.168,403.808 216.668,400.435 215.711,396.846 C 202.323,395.869 192.975,395.146 191.755,394.943 C 191.435,394.889 191.164,394.793 190.922,394.672 C 168.184,396.553 120.358,400.502 117.505,400.693 C 114.496,400.893 92.497,402.22 70.099,402.22 C 65.331,402.22 60.542,402.158 55.917,402.016 C 55.193,401.994 54.471,401.969 53.755,401.943 C 51.824,401.871 50.024,401.732 48.319,401.548 C 48.116,402.387 47.5,402.948 45.88,403.193 C 43.38,403.568 35.88,403.568 34.38,403.568 C 32.88,403.568 29.255,403.568 29.005,401.318 C 28.859,399.997 28.798,397.13 28.773,394.983 C 23.702,391.247 22.279,387.133 21.755,385.693 C 20.755,382.943 19.005,374.943 18.005,368.943 C 17.005,362.943 13.005,319.943 12.255,303.193 C 11.936,296.058 11.344,287.014 10.867,277.305 C 8.969,276.981 7.246,276.675 6.005,276.443 C -1.995,271.943 6.255,269.443 7.505,269.443 C 7.818,269.443 8.968,269.396 10.514,269.325 C 10.392,266.192 10.292,263.027 10.226,259.867 C 4.883,259.181 -7.503,254.404 10.139,253.202 C 10.117,247.788 10.216,242.469 10.505,237.443 C 11.755,215.693 29.755,217.693 50.755,215.443 C 57.261,214.746 117.505,210.693 141.755,208.193 C 166.005,205.693 171.505,187.443 176.755,176.443 C 178.552,172.677 180.085,170.465 181.426,169.144 C 182.585,165.459 183.522,161.911 184.089,158.693 C 186.347,145.897 190.162,125.17 191.272,107.918 C 191.026,107.934 190.838,107.943 190.755,107.943 C 189.829,107.943 188.781,108.125 187.728,108.125 C 185.401,108.125 183.045,107.237 181.904,101.543 C 181.748,100.768 181.613,99.908 181.506,98.942 C 180.256,87.692 183.006,41.442 184.756,35.942 C 186.506,30.442 185.506,16.692 209.756,16.192 C 234.006,15.692 273.506,11.942 282.256,10.692 C 291.006,9.442 336.256,3.942 341.006,2.692 C 341.006,2.695 346.874,1 352.111,1 M 317.675,292.712 C 318.964,292.712 319.946,292.632 320.506,292.445 C 321.113,292.243 321.748,292.14 322.402,291.993 C 326.592,291.047 331.582,288.237 335.256,245.195 C 335.66,235.503 336.779,224.125 339.404,213.352 C 339.258,213.369 339.119,213.385 338.973,213.402 C 336.359,224.16 335.242,235.517 334.838,245.195 C 330.588,294.945 324.588,290.945 320.088,292.445 C 319.568,292.618 318.689,292.701 317.533,292.712 C 317.582,292.712 317.629,292.712 317.675,292.712 M 45.505,246.695 C 49.75,246.256 55.022,245.559 61.274,245.56 C 65.7,245.56 70.617,245.909 76.005,246.945 C 79.169,246.37 85.557,245.464 92.746,245.464 C 98.055,245.464 103.801,245.958 109.005,247.445 C 113.621,246.557 128.446,245.04 137.729,245.04 C 141.519,245.04 144.385,245.293 145.255,245.945 C 146.357,245.995 148.049,246.015 150.065,246.015 C 152.797,246.015 156.123,245.978 159.37,245.929 C 160.228,237.676 162.182,222.544 163.946,213.876 C 155.85,215.81 148.142,215.629 143.255,216.443 C 137.255,217.443 93.755,219.693 63.505,222.193 C 33.255,224.693 30.255,230.693 30.255,239.693 C 30.255,240.897 30.287,242.743 30.343,245.032 C 34.252,245.13 39.203,245.615 45.505,246.695 M 51.635,285.309 C 46.36,284.142 38.031,282.311 31.6,280.95 C 31.655,282.316 31.71,283.657 31.764,284.952 C 33.811,284.98 41.514,285.119 51.635,285.309 M 300.889,291.142 L 291.033,289.262 L 280.252,287.206 C 279.731,287.139 279.215,287.07 278.686,287.001 L 278.672,287.845 C 279.736,288.033 280.457,288.156 280.758,288.196 C 282.668,288.45 291.804,289.94 300.889,291.142 M 56.231,394.648 C 57.893,394.648 59.238,394.445 60.005,394.445 C 63.505,394.445 104.005,392.195 113.755,391.445 C 123.505,390.695 172.755,386.195 183.005,385.445 C 184.815,385.312 186.615,385.257 188.356,385.257 C 194.503,385.258 199.883,385.94 202.132,386.27 C 202.851,386.374 203.255,386.446 203.255,386.446 L 203.23,386.822 C 205.195,386.75 207.215,386.696 209.005,386.696 L 214.11,387.031 C 214.02,386.177 213.93,385.298 213.839,384.363 C 213.576,381.703 209.782,338.739 207.694,313.37 C 194.272,312.924 126.506,310.672 122.005,310.446 C 117.491,310.22 47.778,308.568 32.983,308.25 C 33.847,320.867 35.606,344.251 38.005,368.446 C 40.169,390.269 48.839,394.134 54.816,394.596 C 55.308,394.634 55.781,394.648 56.231,394.648 M 251.676,408.147 C 254.741,408.147 258.681,407.885 263.84,407.695 C 269.987,407.466 291.586,405.649 313.664,403.69 C 294.02,402.347 264.625,400.326 239.601,398.558 C 240.367,401.078 241.238,403.29 242.172,404.695 C 243.355,406.466 244.881,407.378 247.11,407.81 C 248.379,408.058 249.877,408.147 251.676,408.147 M 352.111,-1 C 346.653,-1 340.701,0.701 340.451,0.774 C 337.347,1.589 313.921,4.586 298.419,6.57 C 291.062,7.511 284.706,8.325 281.974,8.715 C 272.56,10.061 233.541,13.704 209.715,14.195 C 187.201,14.659 184.752,26.5 183.436,32.862 C 183.234,33.839 183.059,34.682 182.851,35.339 C 181.024,41.079 178.263,87.862 179.519,99.166 C 179.628,100.145 179.771,101.079 179.944,101.94 C 181.064,107.525 183.537,110.127 187.729,110.127 C 188.21,110.127 188.681,110.096 189.117,110.06 C 187.933,125.549 184.744,143.542 182.599,155.642 L 182.12,158.349 C 181.626,161.15 180.799,164.427 179.661,168.095 C 178.106,169.752 176.562,172.21 174.951,175.585 C 174.394,176.752 173.844,177.98 173.261,179.277 C 168.3,190.33 162.126,204.086 141.551,206.207 C 125.963,207.814 95.894,210.033 73.938,211.653 C 61.72,212.554 52.892,213.206 50.543,213.458 C 47.678,213.766 44.857,213.993 42.129,214.214 C 24.721,215.621 9.687,216.837 8.509,237.331 C 8.264,241.581 8.142,246.185 8.136,251.357 C 2.646,251.859 -0.916,252.887 -0.999,255.668 C -1.102,259.111 5.154,260.875 8.263,261.537 C 8.309,263.43 8.369,265.395 8.441,267.417 C 7.793,267.442 7.577,267.446 7.505,267.446 C 6.349,267.446 1.525,268.59 0.676,271.828 C 0.083,274.094 1.546,276.232 5.024,278.189 L 5.312,278.351 L 5.637,278.412 C 6.536,278.58 7.679,278.785 8.949,279.007 C 9.157,283.113 9.38,287.045 9.596,290.861 C 9.851,295.356 10.091,299.602 10.256,303.286 C 10.985,319.572 14.992,363.039 16.031,369.275 C 17.002,375.102 18.778,383.366 19.874,386.379 L 19.902,386.458 C 20.477,388.044 21.958,392.126 26.784,395.981 C 26.826,398.669 26.904,400.536 27.015,401.541 C 27.463,405.57 32.667,405.57 34.378,405.57 C 38.552,405.57 43.986,405.502 46.175,405.173 C 47.622,404.956 48.703,404.452 49.41,403.67 C 50.833,403.8 52.241,403.892 53.678,403.944 C 54.399,403.97 55.125,403.995 55.853,404.017 C 60.226,404.153 65.018,404.222 70.097,404.222 C 93.97,404.222 117.406,402.704 117.636,402.69 C 120.207,402.519 158.616,399.352 190.602,396.708 C 190.868,396.801 191.139,396.87 191.422,396.918 C 192.168,397.042 195.36,397.366 214.173,398.742 C 215.222,402.12 216.787,405.373 219.148,409.098 C 219.644,409.881 220.271,410.619 221.048,411.333 C 220.97,413.63 220.956,415.218 221.006,416.062 C 221.164,418.749 223.403,420.663 226.712,420.938 C 228.246,421.066 232.062,421.195 237.128,421.195 C 242.107,421.195 244.753,419.836 246.021,418.842 C 246.906,418.919 247.711,418.984 248.464,419.034 C 253.905,419.409 258.903,419.46 262.21,419.493 C 263.169,419.503 263.983,419.513 264.624,419.525 C 265.115,419.537 265.664,419.542 266.259,419.542 C 274.868,419.542 293.001,418.448 300.006,417.854 C 308.218,417.156 391.777,408.652 395.12,408.172 C 399.517,407.544 401.003,405.951 401.003,401.86 C 401.003,398.62 398.779,396.526 395.337,396.526 C 394.89,396.526 392.771,396.306 391.974,396.223 L 390.12,396.027 C 387.904,395.792 385.391,395.524 383.505,395.367 C 382.922,395.318 382.276,395.294 381.586,395.294 C 380.045,395.294 378.27,395.409 376.013,395.657 L 238.995,386.659 C 238.748,385.09 238.572,383.699 238.499,382.712 C 238.35,380.694 236.95,362.941 235.469,344.143 C 234.303,329.343 233.067,313.659 232.289,303.732 C 240.488,303.712 253.178,303.204 264.396,302.753 C 272.177,302.441 279.527,302.146 284.544,302.043 C 288.451,301.965 292.794,301.647 297.455,301.101 C 303.818,301.6 309.726,301.93 315.017,302.08 C 317.224,302.143 319.331,302.176 321.282,302.176 C 327.153,302.176 331.669,301.892 334.704,301.329 L 334.886,301.295 L 335.058,301.23 C 359.659,291.769 355.942,265.755 353.945,251.781 C 353.707,250.111 353.481,248.532 353.337,247.208 C 352.442,228.011 353.789,219.426 356.162,213.096 C 369.474,210.492 375.298,201.913 378.467,197.245 C 378.767,196.805 379.047,196.391 379.311,196.016 C 381.646,192.698 385.499,184.175 388.145,177.759 C 388.505,177.297 388.802,176.788 389.033,176.241 C 389.286,175.63 389.445,175.005 389.512,174.372 C 390.52,171.81 391.348,169.547 391.911,167.815 C 393.932,161.607 391.409,159.249 389.723,158.396 C 388.806,157.932 387.725,157.696 386.509,157.696 C 385.568,157.696 382.309,157.899 378.15,158.163 C 377.924,158.177 377.705,158.191 377.489,158.205 C 382.314,132.993 385.033,104.78 385.336,101.549 C 386.356,90.673 384.362,36.814 383.671,28.858 C 383.478,26.638 383.025,21.441 378.267,21.44 C 378.059,21.44 377.846,21.45 377.626,21.467 C 377.011,21.519 376.407,21.63 375.768,21.747 C 375.14,21.863 374.493,21.983 373.845,22.037 C 372.074,22.185 370.81,22.334 369.936,22.46 C 369.748,20.583 369.41,18.833 368.922,17.224 L 369.394,17.022 C 369.246,16.606 365.685,6.776 361.107,2.171 C 360.179,1.239 359.286,0.575 358.373,0.141 C 356.778,-0.616 354.674,-1 352.111,-1 L 352.111,-1 z M 32.3,243.108 C 32.27,241.648 32.255,240.504 32.255,239.695 C 32.255,233.055 32.255,226.785 63.67,224.188 C 78.293,222.98 95.729,221.848 111.113,220.85 C 127.47,219.788 140.389,218.95 143.584,218.416 C 145.291,218.132 147.385,217.974 149.81,217.789 C 153.173,217.533 157.203,217.227 161.417,216.452 C 159.872,224.964 158.357,236.795 157.571,243.953 C 154.585,243.993 152.066,244.015 150.066,244.015 C 148.245,244.015 146.823,243.997 145.826,243.964 C 144.745,243.448 142.695,243.038 137.73,243.038 C 128.941,243.038 114.525,244.431 109.099,245.392 C 104.417,244.111 98.919,243.46 92.747,243.46 C 85.188,243.46 78.763,244.426 76.017,244.908 C 71.168,243.998 66.342,243.556 61.275,243.556 C 55.875,243.555 51.13,244.072 47.317,244.486 C 46.717,244.551 46.135,244.614 45.571,244.674 C 40.604,243.835 36.151,243.309 32.3,243.108 L 32.3,243.108 z M 56.231,392.648 C 55.798,392.648 55.374,392.631 54.969,392.601 C 46.572,391.954 41.533,383.758 39.995,368.247 C 37.558,343.678 35.866,320.843 35.129,310.296 C 54.008,310.714 117.636,312.23 121.905,312.442 C 124.791,312.588 153.813,313.578 205.849,315.308 C 208.008,341.412 211.611,382.144 211.849,384.558 C 211.859,384.665 211.87,384.773 211.881,384.878 L 209.136,384.697 L 209.072,384.693 L 209.007,384.693 C 207.899,384.693 206.645,384.713 205.209,384.754 L 203.6,384.474 C 203.6,384.474 203.177,384.401 202.425,384.289 C 200.312,383.978 194.711,383.257 188.358,383.256 C 186.455,383.256 184.606,383.321 182.861,383.448 C 177.3,383.855 160.563,385.339 144.378,386.773 C 130.847,387.973 118.067,389.106 113.604,389.449 C 104.146,390.178 63.573,392.443 60.007,392.443 C 59.615,392.443 59.166,392.48 58.646,392.522 C 57.974,392.58 57.139,392.648 56.231,392.648 L 56.231,392.648 z M 251.676,406.147 C 249.873,406.147 248.543,406.05 247.491,405.847 C 245.717,405.501 244.69,404.868 243.836,403.584 C 243.496,403.074 243.024,402.209 242.464,400.765 C 257.265,401.808 273.244,402.915 287.808,403.919 C 276.909,404.83 267.519,405.557 263.767,405.694 C 261.881,405.764 260.161,405.843 258.582,405.916 C 255.897,406.041 253.579,406.147 251.676,406.147 L 251.676,406.147 z"
   id="path2784" />
	</g>
</g>
<g
   id="structure">
	<g
   id="g2787">
		
			<linearGradient
   id="SVGID_1_"
   gradientUnits="userSpaceOnUse"
   x1="25.6021"
   y1="120.1755"
   x2="203.11819"
   y2="120.1755"
   gradientTransform="matrix(1,0,0,-1,0.1377,419.0288)">
			<stop
   offset="0.1484"
   style="stop-color:#624317"
   id="stop2790" />
			<stop
   offset="0.4615"
   style="stop-color:#2D1700"
   id="stop2792" />
		</linearGradient>
		<path
   d="M 147.006,391.199 C 141.006,391.699 96.256,394.199 68.256,395.449 C 62.195,395.72 57.885,395.368 54.816,394.599 C 48.839,394.138 40.17,390.272 38.006,368.449 C 35.006,338.199 33.006,309.199 32.506,300.949 C 32.006,292.699 30.256,248.699 30.256,239.699 C 30.256,230.699 33.256,224.699 63.506,222.199 C 93.756,219.699 137.256,217.449 143.256,216.449 C 149.256,215.449 159.506,215.949 169.506,212.199 C 173.362,210.753 176.921,203.654 179.838,195.479 C 174.254,201.241 167.038,206.195 158.006,207.199 C 135.506,209.699 48.506,216.449 44.006,217.449 C 39.506,218.449 26.006,219.449 25.756,236.449 C 25.506,253.449 28.256,306.949 29.006,317.199 C 29.756,327.449 33.006,365.199 34.006,370.199 C 35.006,375.199 38.54,400.845 53.54,401.845 C 54.382,401.901 55.169,401.96 55.918,402.024 C 82.266,402.843 113.856,400.944 117.506,400.701 C 121.256,400.451 202.756,393.701 202.756,393.701 L 203.256,386.451 C 203.256,386.451 202.852,386.381 202.132,386.275 C 187.376,387.602 151.746,390.805 147.006,391.199 z"
   id="path2794"
   style="fill:url(#SVGID_1_);stroke:#000000" />
		
			<linearGradient
   id="SVGID_2_"
   gradientUnits="userSpaceOnUse"
   x1="54.6782"
   y1="28.627701"
   x2="201.99409"
   y2="28.627701"
   gradientTransform="matrix(1,0,0,-1,0.1377,419.0288)">
			<stop
   offset="0.2582"
   style="stop-color:#E6B564"
   id="stop2797" />
			<stop
   offset="0.4615"
   style="stop-color:#624317"
   id="stop2799" />
		</linearGradient>
		<path
   d="M 68.256,395.449 C 96.256,394.199 141.006,391.699 147.006,391.199 C 151.746,390.804 187.376,387.601 202.132,386.273 C 199.247,385.849 191.209,384.848 183.006,385.449 C 172.756,386.199 123.506,390.699 113.756,391.449 C 104.006,392.199 63.506,394.449 60.006,394.449 C 59.031,394.449 57.123,394.777 54.816,394.599 C 57.885,395.368 62.195,395.72 68.256,395.449 z"
   id="path2801"
   style="fill:url(#SVGID_2_);stroke:#000000" />
		
			<linearGradient
   id="SVGID_3_"
   gradientUnits="userSpaceOnUse"
   x1="98.830101"
   y1="197.343"
   x2="100.3302"
   y2="81.343102"
   gradientTransform="matrix(1,0,0,-1,0.1377,419.0288)">
			<stop
   offset="0"
   style="stop-color:#B78F4C"
   id="stop2804" />
			<stop
   offset="0.0714"
   style="stop-color:#FFFFFF"
   id="stop2806" />
			<stop
   offset="0.1703"
   style="stop-color:#E6B564"
   id="stop2808" />
			<stop
   offset="0.6648"
   style="stop-color:#BB8E51"
   id="stop2810" />
			<stop
   offset="0.9011"
   style="stop-color:#B4874E"
   id="stop2812" />
			<stop
   offset="1"
   style="stop-color:#915E23"
   id="stop2814" />
		</linearGradient>
		<path
   d="M 34.006,370.199 C 33.006,365.199 29.756,327.449 29.006,317.199 C 28.256,306.949 25.506,253.449 25.756,236.449 C 26.006,219.449 39.506,218.449 44.006,217.449 C 48.506,216.449 135.506,209.699 158.006,207.199 C 167.038,206.196 174.254,201.241 179.838,195.479 C 184.486,182.456 187.506,166.699 187.506,166.699 C 185.006,167.699 182.006,165.449 176.756,176.449 C 171.506,187.449 166.006,205.699 141.756,208.199 C 117.506,210.699 57.262,214.752 50.756,215.449 C 29.756,217.699 11.756,215.699 10.506,237.449 C 9.256,259.199 11.506,286.449 12.256,303.199 C 13.006,319.949 17.006,362.949 18.006,368.949 C 19.006,374.949 20.756,382.949 21.756,385.699 C 22.756,388.449 27.006,400.949 53.756,401.949 C 54.471,401.975 55.194,402 55.918,402.022 C 55.169,401.96 54.382,401.899 53.54,401.843 C 38.54,400.844 35.006,375.199 34.006,370.199 z"
   id="path2816"
   style="fill:url(#SVGID_3_);stroke:#000000" />
	</g>
	<g
   id="g2818">
		<path
   d="M 273.756,393.949 C 281.756,394.199 371.506,399.199 371.506,399.199 L 376.337,398.509 L 376.506,397.699 L 209.006,386.699 C 204.256,386.699 197.881,387.074 195.256,387.199 C 194.271,387.246 193.239,387.276 192.318,387.382 C 193.735,387.819 195.367,388.109 197.256,388.199 C 212.756,388.949 265.756,393.699 273.756,393.949 z"
   id="path2820"
   style="fill:#624317;stroke:#000000" />
		
			<linearGradient
   id="SVGID_4_"
   gradientUnits="userSpaceOnUse"
   x1="189.189"
   y1="22.738501"
   x2="376.19919"
   y2="22.738501"
   gradientTransform="matrix(1,0,0,-1,0.1377,419.0288)">
			<stop
   offset="0.1484"
   style="stop-color:#624317"
   id="stop2823" />
			<stop
   offset="0.4615"
   style="stop-color:#3B2400"
   id="stop2825" />
		</linearGradient>
		<path
   d="M 371.506,399.199 C 371.506,399.199 281.756,394.199 273.756,393.949 C 265.756,393.699 212.756,388.949 197.256,388.199 C 195.367,388.107 193.735,387.817 192.318,387.382 C 190.67,387.57 189.381,387.996 189.381,389.199 C 189.381,390.699 188.756,394.449 191.756,394.949 C 196.713,395.775 335.756,405.199 335.756,405.199 L 375.256,403.699 L 376.337,398.509 L 371.506,399.199 z"
   id="path2827"
   style="fill:url(#SVGID_4_);stroke:#000000" />
	</g>
	
		<linearGradient
   id="SVGID_5_"
   gradientUnits="userSpaceOnUse"
   x1="124.9854"
   y1="176.7449"
   x2="137.9855"
   y2="153.7444"
   gradientTransform="matrix(1,0,0,-1,0.1377,419.0288)">
		<stop
   offset="0.022"
   style="stop-color:#AA7B36"
   id="stop2830" />
		<stop
   offset="0.3077"
   style="stop-color:#624317"
   id="stop2832" />
		<stop
   offset="0.7692"
   style="stop-color:#2D1700"
   id="stop2834" />
	</linearGradient>
	<path
   d="M 23.256,268.699 C 23.256,268.699 8.756,269.449 7.506,269.449 C 6.256,269.449 -1.994,271.949 6.006,276.449 C 10.006,277.199 19.006,278.699 22.756,279.199 C 26.506,279.699 56.756,286.449 56.756,286.449 L 278.506,298.199 L 279.006,266.699 L 23.256,268.699 z"
   id="path2836"
   style="fill:url(#SVGID_5_);stroke:#000000" />
	
		<linearGradient
   id="SVGID_6_"
   gradientUnits="userSpaceOnUse"
   x1="118.0913"
   y1="109.907"
   x2="118.7583"
   y2="131.24001"
   gradientTransform="matrix(1,0,0,-1,0.1377,419.0288)">
		<stop
   offset="0"
   style="stop-color:#D6A85B"
   id="stop2839" />
		<stop
   offset="0.0934"
   style="stop-color:#EDD8A0"
   id="stop2841" />
		<stop
   offset="0.1868"
   style="stop-color:#E6B564"
   id="stop2843" />
		<stop
   offset="0.8242"
   style="stop-color:#624317"
   id="stop2845" />
	</linearGradient>
	<path
   d="M 208.506,287.949 C 208.506,287.949 130.756,286.949 121.506,286.699 C 112.256,286.449 33.256,284.949 31.256,284.949 C 29.256,284.949 27.256,284.699 27.006,287.699 C 26.756,290.699 27.256,303.199 27.506,304.449 C 27.756,305.699 28.506,308.199 30.256,308.199 C 32.006,308.199 117.006,310.199 122.006,310.449 C 127.006,310.699 210.006,313.449 210.006,313.449 L 208.506,287.949 z"
   id="path2847"
   style="fill:url(#SVGID_6_);stroke:#000000" />
	
		<linearGradient
   id="SVGID_7_"
   gradientUnits="userSpaceOnUse"
   x1="220.9639"
   y1="121.9124"
   x2="317.86819"
   y2="121.9124"
   gradientTransform="matrix(1,0,0,-1,0.1377,419.0288)">
		<stop
   offset="0.1484"
   style="stop-color:#624317"
   id="stop2850" />
		<stop
   offset="0.4615"
   style="stop-color:#2D1700"
   id="stop2852" />
	</linearGradient>
	<path
   d="M 222.506,294.872 C 222.506,294.872 268.756,295.844 280.256,293.255 C 291.756,290.667 318.006,295.521 318.006,295.521 C 318.006,295.521 300.506,299.726 284.506,300.048 C 268.506,300.371 229.506,302.637 224.006,301.343 C 218.506,300.048 222.506,294.872 222.506,294.872 z"
   id="path2854"
   style="fill:url(#SVGID_7_);stroke:#000000" />
	<g
   id="g2856">
		
			<linearGradient
   id="SVGID_8_"
   gradientUnits="userSpaceOnUse"
   x1="28.6182"
   y1="21.2048"
   x2="48.275398"
   y2="21.2048"
   gradientTransform="matrix(1,0,0,-1,0.1377,419.0288)">
			<stop
   offset="0.022"
   style="stop-color:#58595B"
   id="stop2859" />
			<stop
   offset="0.2374"
   style="stop-color:#555658"
   id="stop2861" />
			<stop
   offset="0.3806"
   style="stop-color:#4D4E50"
   id="stop2863" />
			<stop
   offset="0.5028"
   style="stop-color:#3F3E40"
   id="stop2865" />
			<stop
   offset="0.6127"
   style="stop-color:#0D0C0D"
   id="stop2867" />
			<stop
   offset="0.6264"
   style="stop-color:#000000"
   id="stop2869" />
			<stop
   offset="1"
   style="stop-color:#000000"
   id="stop2871" />
		</linearGradient>
		<path
   d="M 48.381,399.949 C 37.881,396.449 38.631,392.699 38.631,392.699 L 36.395,392.475 L 36.631,400.199 L 30.881,399.949 L 31.152,393.725 L 30.381,392.074 L 28.756,392.324 C 28.756,392.324 28.756,399.074 29.006,401.324 C 29.256,403.574 32.881,403.574 34.381,403.574 C 35.881,403.574 43.381,403.574 45.881,403.199 C 48.381,402.824 48.506,401.699 48.381,399.949 z"
   id="path2873"
   style="fill:url(#SVGID_8_);stroke:#000000" />
		<polygon
   points="36.631,400.199 36.395,392.476 36.131,392.449 36.006,393.699 31.256,393.949 31.151,393.726 30.881,399.949 36.631,400.199 "
   id="polygon2875"
   style="stroke:#000000" />
	</g>
	<g
   id="g2877">
		
			<linearGradient
   id="SVGID_9_"
   gradientUnits="userSpaceOnUse"
   x1="341.0527"
   y1="131.21359"
   x2="367.05289"
   y2="394.21411"
   gradientTransform="matrix(1,0,0,-1,0.1377,419.0288)">
			<stop
   offset="0"
   style="stop-color:#B78F4C"
   id="stop2880" />
			<stop
   offset="0.0714"
   style="stop-color:#FFFFFF"
   id="stop2882" />
			<stop
   offset="0.1868"
   style="stop-color:#E6B564"
   id="stop2884" />
			<stop
   offset="0.6648"
   style="stop-color:#BB8E51"
   id="stop2886" />
			<stop
   offset="0.9011"
   style="stop-color:#B4874E"
   id="stop2888" />
			<stop
   offset="1"
   style="stop-color:#915E23"
   id="stop2890" />
		</linearGradient>
		<path
   d="M 332.673,292.032 C 338.839,290.032 351.839,281.366 348.506,263.199 C 345.173,245.032 346.508,214.865 350.174,207.699 C 353.84,200.533 368.673,167.866 371.84,150.532 C 375.007,133.198 379.006,98.198 378.673,81.365 C 378.34,64.532 377.84,34.699 377.507,30.532 C 377.359,28.667 377.045,25.67 377.787,23.463 C 376.687,23.555 375.409,23.916 374.006,24.033 C 370.006,24.366 368.756,24.7 368.756,24.7 L 369.256,28.7 C 370.256,36.7 369.006,65.45 366.756,102.45 C 364.506,139.45 356.506,177.7 350.006,188.45 C 339.173,203.367 336.006,227.2 335.256,245.2 C 331.579,288.242 326.592,291.053 322.402,291.998 C 326.257,292.678 330.093,292.869 332.673,292.032 z"
   id="path2892"
   style="fill:url(#SVGID_9_);stroke:#000000" />
		<path
   d="M 181.172,278.532 C 179.15,278.195 172.741,278.539 168.162,278.749 C 168.742,278.88 169.3,278.949 169.756,278.949 C 171.506,278.949 173.339,280.032 185.006,281.699 C 196.673,283.366 256.673,294.699 279.673,297.366 C 292.316,298.832 304.851,299.793 315.076,300.085 C 283.75,295.287 202.722,282.442 200.672,282.032 C 198.172,281.532 184.172,279.032 181.172,278.532 z"
   id="path2894"
   style="fill:none;stroke:#000000" />
		<g
   id="g2896">
			<path
   d="M 183.961,271.5 C 179.762,271.224 173.748,270.771 172.506,270.949 C 170.756,271.199 168.756,272.199 166.756,272.449 C 164.756,272.699 164.256,274.449 164.506,276.199 C 164.691,277.493 166.516,278.376 168.162,278.749 C 172.741,278.539 179.15,278.195 181.172,278.532 C 181.657,278.613 182.431,278.746 183.395,278.915 C 183.057,278.582 182.706,278.232 182.339,277.866 C 179.262,274.789 181.149,272.732 183.961,271.5 z"
   id="path2898"
   style="fill:none;stroke:#000000" />
			
				<linearGradient
   id="SVGID_10_"
   gradientUnits="userSpaceOnUse"
   x1="180.6196"
   y1="257.21851"
   x2="383.47559"
   y2="257.21851"
   gradientTransform="matrix(1,0,0,-1,0.1377,419.0288)">
				<stop
   offset="0.1484"
   style="stop-color:#624317"
   id="stop2901" />
				<stop
   offset="0.4615"
   style="stop-color:#2D1700"
   id="stop2903" />
			</linearGradient>
			<path
   d="M 381.673,29.033 C 381.24,24.055 379.823,23.294 377.787,23.463 C 377.045,25.671 377.357,28.668 377.507,30.532 C 377.84,34.699 378.34,64.532 378.673,81.365 C 379.006,98.198 375.007,133.198 371.84,150.532 C 368.673,167.866 353.84,200.532 350.174,207.699 C 346.508,214.866 345.173,245.032 348.506,263.199 C 351.839,281.366 338.839,290.032 332.673,292.032 C 330.093,292.869 326.257,292.678 322.402,291.997 C 321.749,292.144 321.114,292.247 320.506,292.449 C 316.006,293.949 284.506,288.699 280.756,288.199 C 277.006,287.699 209.006,274.699 205.506,274.199 C 202.006,273.699 190.006,271.699 187.756,271.699 C 187.103,271.699 185.68,271.614 183.961,271.5 C 181.149,272.732 179.262,274.789 182.339,277.866 C 182.706,278.232 183.057,278.582 183.395,278.915 C 188.398,279.788 198.576,281.613 200.672,282.032 C 202.722,282.442 283.75,295.287 315.076,300.085 C 323.455,300.324 330.286,300.116 334.339,299.366 C 360.339,289.366 352.673,259.699 351.339,247.366 C 349.672,211.7 355.339,210.366 365.673,191.699 C 376.007,173.032 382.339,112.032 383.339,101.366 C 384.339,90.7 382.339,36.699 381.673,29.033 z"
   id="path2905"
   style="fill:url(#SVGID_10_);stroke:#000000" />
		</g>
	</g>
	
		<linearGradient
   id="SVGID_11_"
   gradientUnits="userSpaceOnUse"
   x1="18.6182"
   y1="142.3298"
   x2="165.0054"
   y2="142.3298"
   gradientTransform="matrix(1,0,0,-1,0.1377,419.0288)">
		<stop
   offset="0"
   style="stop-color:#624317"
   id="stop2908" />
		<stop
   offset="0.7692"
   style="stop-color:#2D1700"
   id="stop2910" />
	</linearGradient>
	<path
   d="M 18.756,271.449 C 18.756,272.699 19.756,276.074 22.131,276.074 C 24.506,276.074 88.006,281.949 96.506,281.949 C 105.006,281.949 153.279,280.447 165.143,277.323 C 164.506,274.662 164.506,274.662 159.506,274.662 C 154.506,274.662 112.006,277.699 96.256,277.699 C 80.506,277.699 26.006,272.949 23.756,272.949 C 21.506,272.949 18.756,271.449 18.756,271.449 z"
   id="path2912"
   style="fill:url(#SVGID_11_);stroke:#000000" />
	<g
   id="g2914">
		<path
   d="M 364.413,12.485 C 359.684,11.88 355.176,11.515 355.006,12.365 C 354.673,14.032 360.006,23.365 359.673,30.698 C 359.34,38.031 355.006,86.698 350.006,122.365 C 345.006,158.032 337.006,183.698 332.006,192.698 C 327.006,201.698 322.006,241.365 321.006,249.698 C 320.006,258.031 323.006,282.699 304.006,275.365 C 294.396,271.655 291.525,280.056 291.03,289.264 L 301.793,291.316 C 310.061,292.381 317.996,293.145 320.09,292.448 C 324.59,290.948 330.59,294.948 334.84,245.198 C 335.59,227.198 338.756,203.365 349.59,188.448 C 356.09,177.698 364.09,139.448 366.34,102.448 C 367.818,78.17 368.861,57.444 369.123,43.802 C 368.672,37.967 368.301,31.635 368.09,24.948 C 367.915,19.437 366.558,15.398 364.413,12.485 z"
   id="path2916"
   style="fill:#0c6081;stroke:#000000" />
		
			<linearGradient
   id="SVGID_12_"
   gradientUnits="userSpaceOnUse"
   x1="211.89259"
   y1="290.17261"
   x2="332.55789"
   y2="269.5062"
   gradientTransform="matrix(1,0,0,-1,0.1377,419.0288)">
			<stop
   offset="0"
   style="stop-color:#A1CDD3"
   id="stop2919" />
			<stop
   offset="0.456"
   style="stop-color:#A1CDD3"
   id="stop2921" />
			<stop
   offset="0.8681"
   style="stop-color:#279DD0"
   id="stop2923" />
			<stop
   offset="0.9945"
   style="stop-color:#0C6081"
   id="stop2925" />
		</linearGradient>
		<path
   d="M 304.006,275.366 C 323.006,282.7 320.006,258.032 321.006,249.699 C 322.006,241.366 327.006,201.699 332.006,192.699 C 337.006,183.699 345.006,158.032 350.006,122.366 C 355.006,86.7 359.34,38.033 359.673,30.699 C 360.006,23.365 354.673,14.032 355.006,12.366 C 355.176,11.515 359.684,11.881 364.413,12.486 C 354.303,-1.245 326.627,10.125 322.09,10.95 C 316.59,11.95 206.84,22.2 197.34,23.2 C 187.84,24.2 189.84,74.2 191.34,92.45 C 192.84,110.7 187.09,141.7 184.09,158.7 C 181.09,175.7 167.84,201.95 165.34,208.45 C 162.84,214.95 158.924,247.7 158.924,251.367 L 160.84,264.45 L 291.032,289.266 C 291.524,280.058 294.396,271.656 304.006,275.366 z"
   id="path2927"
   style="fill:url(#SVGID_12_);stroke:#000000" />
	</g>
	<g
   id="g2929">
		
			<linearGradient
   id="SVGID_13_"
   gradientUnits="userSpaceOnUse"
   x1="0.86040002"
   y1="161.80251"
   x2="181.2998"
   y2="161.80251"
   gradientTransform="matrix(1,0,0,-1,0.1377,419.0288)">
			<stop
   offset="0.5549"
   style="stop-color:#A1CDD3"
   id="stop2932" />
			<stop
   offset="0.8846"
   style="stop-color:#2596C6"
   id="stop2934" />
			<stop
   offset="0.9945"
   style="stop-color:#0C6081"
   id="stop2936" />
		</linearGradient>
		<path
   d="M 46.006,258.949 C 50.756,259.199 112.756,258.699 118.256,258.949 C 123.756,259.199 146.756,259.949 152.006,259.449 C 157.256,258.949 158.506,257.199 161.756,259.449 C 165.006,261.699 176.006,262.199 179.506,260.949 C 180.975,260.426 181.209,260.255 181.358,260.287 C 181.686,258.547 180.961,256.724 179.839,255.048 C 179.726,255.016 179.611,254.984 179.506,254.949 C 174.756,253.449 169.256,252.949 165.006,254.199 C 160.756,255.449 156.256,255.199 149.256,254.449 C 142.256,253.699 119.506,253.699 116.006,253.699 C 112.506,253.699 66.256,254.449 60.756,254.449 C 55.256,254.449 36.256,255.449 20.506,254.199 C 16.196,253.857 13.54,253.421 11.762,252.835 C 11.236,253.015 10.719,253.143 10.256,253.199 C -8.494,254.449 6.256,259.699 11.006,259.949 C 11.755,259.988 12.324,260.083 12.778,260.215 C 13.963,259.948 15.271,259.756 16.756,259.699 C 23.256,259.449 41.256,258.699 46.006,258.949 z"
   id="path2938"
   style="fill:url(#SVGID_13_);stroke:#000000" />
		
			<linearGradient
   id="SVGID_14_"
   gradientUnits="userSpaceOnUse"
   x1="11.6245"
   y1="159.8289"
   x2="314.96289"
   y2="159.8289"
   gradientTransform="matrix(1,0,0,-1,0.1377,419.0288)">
			<stop
   offset="0.4725"
   style="stop-color:#A1CDD3"
   id="stop2941" />
			<stop
   offset="0.6923"
   style="stop-color:#2596C6"
   id="stop2943" />
			<stop
   offset="0.9945"
   style="stop-color:#0C6081"
   id="stop2945" />
		</linearGradient>
		<path
   d="M 179.839,255.048 C 184.832,256.483 197.295,257.199 199.006,257.199 C 200.756,257.199 241.256,260.949 245.756,262.199 C 250.256,263.449 282.506,268.449 286.756,268.949 C 291.006,269.449 298.756,271.449 303.756,272.199 C 307.475,272.757 310.367,273.727 315.101,273.263 C 314.496,272.886 314.011,272.457 313.756,271.949 C 312.756,269.949 301.506,268.199 297.256,266.699 C 293.006,265.199 273.006,260.949 265.256,258.949 C 257.506,256.949 194.006,248.449 188.256,247.949 C 182.506,247.449 174.006,245.699 172.506,245.699 C 171.006,245.699 150.756,246.199 145.256,245.949 C 142.256,243.699 115.506,246.199 109.006,247.449 C 96.756,243.949 81.506,245.949 76.006,246.949 C 63.006,244.449 52.756,245.949 45.506,246.699 C 19.256,242.199 16.256,247.949 15.756,249.699 C 15.372,251.044 13.511,252.239 11.762,252.835 C 13.54,253.421 16.197,253.857 20.506,254.199 C 36.256,255.449 55.256,254.449 60.756,254.449 C 66.256,254.449 112.506,253.699 116.006,253.699 C 119.506,253.699 142.256,253.699 149.256,254.449 C 156.256,255.199 160.756,255.449 165.006,254.199 C 169.256,252.949 174.756,253.449 179.506,254.949 C 179.611,254.982 179.726,255.015 179.839,255.048"
   id="path2947"
   style="fill:url(#SVGID_14_);stroke:#000000" />
		
			<linearGradient
   id="SVGID_15_"
   gradientUnits="userSpaceOnUse"
   x1="12.6401"
   y1="143.98801"
   x2="318.7793"
   y2="143.98801"
   gradientTransform="matrix(1,0,0,-1,0.1377,419.0288)">
			<stop
   offset="0.456"
   style="stop-color:#69A0C8"
   id="stop2950" />
			<stop
   offset="0.6209"
   style="stop-color:#228BB8"
   id="stop2952" />
			<stop
   offset="0.6291"
   style="stop-color:#2289B5"
   id="stop2954" />
			<stop
   offset="0.7133"
   style="stop-color:#167096"
   id="stop2956" />
			<stop
   offset="0.7943"
   style="stop-color:#0A5D7E"
   id="stop2958" />
			<stop
   offset="0.8702"
   style="stop-color:#00506D"
   id="stop2960" />
			<stop
   offset="0.939"
   style="stop-color:#004762"
   id="stop2962" />
			<stop
   offset="0.9945"
   style="stop-color:#00435E"
   id="stop2964" />
		</linearGradient>
		<path
   d="M 181.358,260.287 C 181.209,260.255 180.975,260.425 179.506,260.949 C 176.006,262.199 165.006,261.699 161.756,259.449 C 158.506,257.199 157.256,258.949 152.006,259.449 C 146.756,259.949 123.756,259.199 118.256,258.949 C 112.756,258.699 50.756,259.199 46.006,258.949 C 41.256,258.699 23.256,259.449 16.756,259.699 C 15.271,259.756 13.963,259.948 12.778,260.215 C 15.207,260.925 13.905,262.878 13.756,265.199 C 13.506,269.074 15.04,269.199 20.54,270.639 C 26.489,272.197 68.506,277.699 86.756,277.699 C 105.006,277.699 151.006,276.199 163.506,274.199 C 176.006,272.199 318.006,292.949 318.006,291.699 C 318.006,290.47 317.045,284.169 318.917,281.822 C 310.263,278.188 295.49,276.86 292.756,275.949 C 289.756,274.949 278.506,273.699 275.256,273.699 C 272.006,273.699 252.256,270.699 248.756,270.699 C 245.256,270.699 204.006,264.199 197.506,263.199 C 191.006,262.199 189.506,261.949 184.506,261.199 C 181.604,260.764 181.563,260.332 181.358,260.287"
   id="path2966"
   style="fill:url(#SVGID_15_);stroke:#000000" />
		<path
   d="M 321.006,275.949 C 319.702,275.017 316.873,274.363 315.101,273.263 C 310.369,273.727 307.475,272.755 303.756,272.199 C 298.756,271.449 291.006,269.449 286.756,268.949 C 282.506,268.449 250.256,263.449 245.756,262.199 C 241.256,260.949 200.756,257.199 199.006,257.199 C 197.295,257.199 184.832,256.481 179.839,255.048 C 180.961,256.724 181.686,258.547 181.358,260.287 C 181.564,260.332 181.605,260.765 184.506,261.199 C 189.506,261.949 191.006,262.199 197.506,263.199 C 204.006,264.199 245.256,270.699 248.756,270.699 C 252.256,270.699 272.006,273.699 275.256,273.699 C 278.506,273.699 289.756,274.949 292.756,275.949 C 295.49,276.86 310.263,278.188 318.917,281.822 C 318.948,281.783 318.973,281.736 319.006,281.699 C 327.006,280.449 322.756,277.199 321.006,275.949 z"
   id="path2968"
   style="fill:#0c6081;stroke:#000000" />
	</g>
	<g
   id="g2970">
		<path
   d="M 254.256,102.467 C 253.506,111.217 248.006,150.699 246.006,161.699 C 244.006,172.699 242.006,183.949 233.506,194.699 C 225.659,204.623 221.256,237.947 221.006,252.197"
   id="path2972"
   style="fill:none;stroke:#0086b1" />
		<path
   d="M 285.256,99.744 C 284.506,108.494 279.006,150.7 277.006,161.7 C 275.006,172.7 273.006,183.95 264.506,194.7 C 256.658,204.624 252.256,224.367 252.006,256.648"
   id="path2974"
   style="fill:none;stroke:#0086b1" />
		<path
   d="M 318.506,96.885 C 317.756,105.635 312.256,150.699 310.256,161.699 C 308.256,172.699 306.256,183.949 297.756,194.699 C 289.908,204.623 285.256,229.366 285.256,263.636"
   id="path2976"
   style="fill:none;stroke:#0086b1" />
		<path
   d="M 224.006,105.135 C 223.256,113.885 217.756,150.699 215.756,161.699 C 213.756,172.699 211.756,183.949 203.256,194.699 C 195.409,204.623 191.006,233.949 190.756,248.199"
   id="path2978"
   style="fill:none;stroke:#0086b1" />
	</g>
	<g
   id="g2980">
		
			<linearGradient
   id="SVGID_16_"
   gradientUnits="userSpaceOnUse"
   x1="222.6953"
   y1="130.1628"
   x2="398.86719"
   y2="130.1628"
   gradientTransform="matrix(1,0,0,-1,0.1377,419.0288)">
			<stop
   offset="0.1484"
   style="stop-color:#624317"
   id="stop2983" />
			<stop
   offset="0.4615"
   style="stop-color:#2D1700"
   id="stop2985" />
		</linearGradient>
		<path
   d="M 395.339,398.532 C 394.873,398.532 393.5,398.398 391.77,398.22 C 371.023,401.049 301.072,409.449 265.006,410.032 C 255.883,410.179 250.3,409.221 247.109,407.814 C 244.88,407.38 243.353,406.47 242.172,404.699 C 239.172,400.199 236.839,387.365 236.505,382.865 C 236.171,378.365 229.672,296.199 229.505,293.699 C 229.338,291.199 228.005,250.699 228.505,236.866 C 229.005,223.033 241.505,222.699 245.338,222.032 C 249.171,221.365 282.671,218.199 295.838,217.366 C 309.005,216.533 339.838,213.699 354.505,211.366 C 369.172,209.033 374.505,199.366 377.672,194.866 C 380.839,190.366 387.672,174.366 390.005,167.199 C 391.463,162.721 390.253,160.911 388.816,160.183 C 387.841,160.912 386.784,162.488 385.672,165.366 C 381.172,177.033 372.172,198.533 362.172,201.366 C 352.172,204.199 285.672,210.033 272.505,211.033 C 259.338,212.033 236.838,214.199 232.005,217.366 C 227.172,220.533 222.672,222.198 222.838,236.532 C 223.004,250.866 223.004,290.366 223.171,293.699 C 223.338,297.032 230.454,376.181 231.338,382.532 C 233.171,395.699 235.832,407.691 239.005,410.865 C 241.896,413.755 245.046,415.757 248.603,417.045 C 255.576,417.525 261.833,417.469 264.671,417.532 C 272.004,417.698 292.005,416.532 299.838,415.866 C 307.671,415.2 391.338,406.699 394.838,406.199 C 398.338,405.699 399.005,404.866 399.005,401.866 C 399.005,398.866 396.506,398.532 395.339,398.532 z"
   id="path2987"
   style="fill:url(#SVGID_16_);stroke:#000000" />
		
			<linearGradient
   id="SVGID_17_"
   gradientUnits="userSpaceOnUse"
   x1="246.9707"
   y1="15.3552"
   x2="391.63281"
   y2="15.3552"
   gradientTransform="matrix(1,0,0,-1,0.1377,419.0288)">
			<stop
   offset="0.2582"
   style="stop-color:#E6B564"
   id="stop2990" />
			<stop
   offset="0.4615"
   style="stop-color:#624317"
   id="stop2992" />
		</linearGradient>
		<path
   d="M 265.006,410.032 C 301.07,409.447 371.023,401.049 391.771,398.22 C 389.166,397.948 385.745,397.568 383.339,397.366 C 379.339,397.033 373.339,398.032 369.339,398.532 C 365.339,399.032 277.339,407.199 263.839,407.699 C 255.651,408.002 250.541,408.482 247.109,407.814 C 250.3,409.222 255.883,410.18 265.006,410.032 z"
   id="path2994"
   style="fill:url(#SVGID_17_);stroke:#000000" />
		
			<linearGradient
   id="SVGID_18_"
   gradientUnits="userSpaceOnUse"
   x1="296.9111"
   y1="202.6853"
   x2="304.41101"
   y2="40.1856"
   gradientTransform="matrix(1,0,0,-1,0.1377,419.0288)">
			<stop
   offset="0"
   style="stop-color:#B78F4C"
   id="stop2997" />
			<stop
   offset="0.0714"
   style="stop-color:#FFFFFF"
   id="stop2999" />
			<stop
   offset="0.1703"
   style="stop-color:#E6B564"
   id="stop3001" />
			<stop
   offset="0.6648"
   style="stop-color:#BB8E51"
   id="stop3003" />
			<stop
   offset="0.9011"
   style="stop-color:#B4874E"
   id="stop3005" />
			<stop
   offset="1"
   style="stop-color:#915E23"
   id="stop3007" />
		</linearGradient>
		<path
   d="M 231.339,382.532 C 230.455,376.181 223.339,297.032 223.172,293.699 C 223.005,290.366 223.005,250.866 222.839,236.532 C 222.673,222.198 227.172,220.533 232.006,217.366 C 236.84,214.199 259.339,212.033 272.506,211.033 C 285.673,210.033 352.173,204.199 362.173,201.366 C 372.173,198.533 381.173,177.033 385.673,165.366 C 386.783,162.488 387.842,160.912 388.817,160.183 C 387.954,159.745 387.006,159.699 386.506,159.699 C 385.173,159.699 377.839,160.199 375.006,160.366 C 372.173,160.533 371.006,162.366 370.006,164.366 C 370.006,164.366 363.172,180.032 356.506,191.199 C 349.84,202.366 336.506,204.532 331.506,205.366 C 326.506,206.2 300.172,207.866 295.339,208.366 C 290.506,208.866 275.339,209.7 238.506,212.866 C 201.673,216.032 206.006,230.366 205.339,236.033 C 204.672,241.7 206.339,290.7 206.339,295.2 C 206.339,299.7 213.478,380.683 213.839,384.367 C 214.839,394.533 215.494,399.594 220.839,408.033 C 224.722,414.164 237.56,416.283 248.605,417.046 C 245.047,415.758 241.896,413.756 239.006,410.866 C 235.833,407.691 233.172,395.699 231.339,382.532 z"
   id="path3009"
   style="fill:url(#SVGID_18_);stroke:#000000" />
	</g>
	<g
   id="g3011">
		
			<linearGradient
   id="SVGID_19_"
   gradientUnits="userSpaceOnUse"
   x1="222.23241"
   y1="7.9313998"
   x2="243.8989"
   y2="7.5984001"
   gradientTransform="matrix(1,0,0,-1,0.1377,419.0288)">
			<stop
   offset="0.022"
   style="stop-color:#000000"
   id="stop3014" />
			<stop
   offset="0.5497"
   style="stop-color:#000000"
   id="stop3016" />
			<stop
   offset="0.6264"
   style="stop-color:#000000"
   id="stop3018" />
			<stop
   offset="1"
   style="stop-color:#000000"
   id="stop3020" />
		</linearGradient>
		<polygon
   points="232.631,415.949 232.19,408.674 232.131,408.949 226.381,408.449 225.381,406.449 225.324,406.452 225.506,415.074 232.631,415.949 "
   id="polygon3022"
   style="fill:url(#SVGID_19_);stroke:#000000" />
		
			<linearGradient
   id="SVGID_20_"
   gradientUnits="userSpaceOnUse"
   x1="222.20799"
   y1="6.323"
   x2="243.8745"
   y2="5.9899998"
   gradientTransform="matrix(1,0,0,-1,0.1377,419.0288)">
			<stop
   offset="0.022"
   style="stop-color:#58595B"
   id="stop3025" />
			<stop
   offset="0.2374"
   style="stop-color:#555658"
   id="stop3027" />
			<stop
   offset="0.3806"
   style="stop-color:#4D4E50"
   id="stop3029" />
			<stop
   offset="0.5028"
   style="stop-color:#3F3E40"
   id="stop3031" />
			<stop
   offset="0.6127"
   style="stop-color:#0D0C0D"
   id="stop3033" />
			<stop
   offset="0.6264"
   style="stop-color:#000000"
   id="stop3035" />
			<stop
   offset="1"
   style="stop-color:#000000"
   id="stop3037" />
		</linearGradient>
		<path
   d="M 236.131,410.199 C 235.756,409.449 235.381,407.199 235.381,407.199 L 232.506,407.199 L 232.191,408.674 L 232.631,415.949 L 225.506,415.074 L 225.324,406.452 L 223.256,406.574 C 223.256,406.574 222.881,413.824 223.006,415.949 C 223.131,418.074 225.381,418.824 226.881,418.949 C 228.381,419.074 232.131,419.199 237.131,419.199 C 242.131,419.199 244.631,417.699 245.381,416.699 C 244.381,416.199 236.506,410.949 236.131,410.199 z"
   id="path3039"
   style="fill:url(#SVGID_20_);stroke:#000000" />
	</g>
	<g
   id="g3041">
		
			<linearGradient
   id="SVGID_21_"
   gradientUnits="userSpaceOnUse"
   x1="181.0527"
   y1="367.75171"
   x2="359.54489"
   y2="367.75171"
   gradientTransform="matrix(1,0,0,-1,0.1377,419.0288)">
			<stop
   offset="0"
   style="stop-color:#A1CDD3"
   id="stop3044" />
			<stop
   offset="0.0549"
   style="stop-color:#A1CDD3"
   id="stop3046" />
			<stop
   offset="0.1484"
   style="stop-color:#96C6D1"
   id="stop3048" />
			<stop
   offset="0.9011"
   style="stop-color:#279DD0"
   id="stop3050" />
			<stop
   offset="0.9945"
   style="stop-color:#0C6081"
   id="stop3052" />
		</linearGradient>
		<path
   d="M 270.756,93.949 C 279.256,93.699 312.756,89.449 324.256,89.199 C 335.756,88.949 342.506,87.449 343.256,73.699 C 344.006,59.949 348.506,24.449 349.256,18.949 C 349.88,14.376 352.927,2.557 359.683,3.584 C 358.975,2.872 358.246,2.302 357.506,1.949 C 352.256,-0.551 341.006,2.699 341.006,2.699 C 336.256,3.949 291.006,9.449 282.256,10.699 C 273.506,11.949 234.006,15.699 209.756,16.199 C 185.506,16.699 186.506,30.449 184.756,35.949 C 183.006,41.449 180.256,87.699 181.506,98.949 C 181.613,99.914 181.748,100.773 181.903,101.55 C 197.384,100.253 228.827,97.553 235.256,96.949 C 243.256,96.199 262.256,94.199 270.756,93.949 z"
   id="path3054"
   style="fill:url(#SVGID_21_);stroke:#000000" />
		
			<linearGradient
   id="SVGID_22_"
   gradientUnits="userSpaceOnUse"
   x1="181.76511"
   y1="363.20291"
   x2="367.36819"
   y2="363.20291"
   gradientTransform="matrix(1,0,0,-1,0.1377,419.0288)">
			<stop
   offset="0.2143"
   style="stop-color:#279DD0"
   id="stop3057" />
			<stop
   offset="0.9945"
   style="stop-color:#0C6081"
   id="stop3059" />
		</linearGradient>
		<path
   d="M 359.683,3.584 C 352.927,2.558 349.88,14.376 349.256,18.949 C 348.506,24.449 344.006,59.949 343.256,73.699 C 342.506,87.449 335.756,88.949 324.256,89.199 C 312.756,89.449 279.256,93.699 270.756,93.949 C 262.256,94.199 243.256,96.199 235.256,96.949 C 228.828,97.553 197.385,100.252 181.903,101.55 C 183.561,109.823 187.784,107.949 190.756,107.949 C 194.006,107.949 325.506,95.949 340.256,95.199 C 355.006,94.449 354.506,86.949 355.006,66.699 C 355.006,66.699 354.756,-7.801 367.506,17.699 C 367.506,17.699 363.999,7.927 359.683,3.584 z"
   id="path3061"
   style="fill:url(#SVGID_22_);stroke:#000000" />
	</g>
	
		<radialGradient
   id="SVGID_23_"
   cx="228.2021"
   cy="140.6628"
   r="4.8771"
   gradientTransform="matrix(1,0,0,-1,0.1377,419.0288)"
   gradientUnits="userSpaceOnUse">
		<stop
   offset="0"
   style="stop-color:#F4E7B0"
   id="stop3064" />
		<stop
   offset="0.2253"
   style="stop-color:#A88035"
   id="stop3066" />
		<stop
   offset="0.9615"
   style="stop-color:#886728"
   id="stop3068" />
	</radialGradient>
	<ellipse
   cx="227.672"
   cy="280.03201"
   rx="2"
   ry="3.1659999"
   id="ellipse3070"
   sodipodi:cx="227.672"
   sodipodi:cy="280.03201"
   sodipodi:rx="2"
   sodipodi:ry="3.1659999"
   style="fill:url(#SVGID_23_);stroke:#000000" />
	
		<radialGradient
   id="SVGID_24_"
   cx="227.53419"
   cy="119.3308"
   r="3.3499999"
   gradientTransform="matrix(1,0,0,-1,0.1377,419.0288)"
   gradientUnits="userSpaceOnUse">
		<stop
   offset="0"
   style="stop-color:#F4E7B0"
   id="stop3073" />
		<stop
   offset="0.2253"
   style="stop-color:#A88035"
   id="stop3075" />
		<stop
   offset="0.9615"
   style="stop-color:#886728"
   id="stop3077" />
	</radialGradient>
	<ellipse
   cx="227.672"
   cy="301.03299"
   rx="2"
   ry="3.1659999"
   id="ellipse3079"
   sodipodi:cx="227.672"
   sodipodi:cy="301.03299"
   sodipodi:rx="2"
   sodipodi:ry="3.1659999"
   style="fill:url(#SVGID_24_);stroke:#000000" />
	
		<radialGradient
   id="SVGID_25_"
   cx="385.86819"
   cy="246.3308"
   r="3.9001999"
   gradientTransform="matrix(1,0,0,-1,0.1377,419.0288)"
   gradientUnits="userSpaceOnUse">
		<stop
   offset="0"
   style="stop-color:#F4E7B0"
   id="stop3082" />
		<stop
   offset="0.2253"
   style="stop-color:#A88035"
   id="stop3084" />
		<stop
   offset="0.9615"
   style="stop-color:#886728"
   id="stop3086" />
	</radialGradient>
	<path
   d="M 387.185,175.47 C 386.512,177.082 385.139,178.046 384.122,177.621 C 383.101,177.196 382.822,175.542 383.495,173.93 C 384.168,172.316 385.54,171.352 386.558,171.777 C 387.577,172.202 387.857,173.855 387.185,175.47 z"
   id="path3088"
   style="fill:url(#SVGID_25_);stroke:#000000" />
</g>
</svg>